<svg width="63" height="63" viewBox="0 0 63 63" fill="none" xmlns="http://www.w3.org/2000/svg">
<path d="M5.25 23.6244H13.125V55.1245H5.25C3.80026 55.1245 2.625 53.9493 2.625 52.4995V26.2494C2.625 24.7997 3.80026 23.6244 5.25 23.6244ZM19.1438 20.2306L35.9452 3.42936C36.4069 2.96749 37.1382 2.91554 37.6606 3.30743L39.8987 4.98596C41.171 5.9402 41.7443 7.56615 41.3519 9.10737L38.3245 20.9994H55.125C58.0246 20.9994 60.375 23.3499 60.375 26.2494V31.7733C60.375 32.4592 60.2406 33.1383 59.9797 33.7722L51.8569 53.4988C51.4518 54.4824 50.4932 55.1245 49.4295 55.1245H21C19.5503 55.1245 18.375 53.9493 18.375 52.4995V22.0868C18.375 21.3906 18.6516 20.7229 19.1438 20.2306Z" fill="white"/>
</svg>
