<svg width="26" height="26" viewBox="0 0 26 26" fill="none" xmlns="http://www.w3.org/2000/svg">
<rect x="0.75" y="0.75" width="24.5" height="24.5" rx="12.25" fill="#F2F3F7"/>
<path d="M12.75 13.273L10.1351 15.8879C10.0603 15.9626 9.97318 16 9.87356 16C9.77395 16 9.68678 15.9626 9.61207 15.8879C9.53736 15.8132 9.5 15.7261 9.5 15.6264C9.5 15.5268 9.53736 15.4397 9.61207 15.3649L12.227 12.75L9.61207 10.1351C9.53736 10.0603 9.5 9.97318 9.5 9.87356C9.5 9.77395 9.53736 9.68678 9.61207 9.61207C9.68678 9.53736 9.77395 9.5 9.87356 9.5C9.97318 9.5 10.0603 9.53736 10.1351 9.61207L12.75 12.227L15.3649 9.61207C15.4397 9.53736 15.5268 9.5 15.6264 9.5C15.7261 9.5 15.8132 9.53736 15.8879 9.61207C15.9626 9.68678 16 9.77395 16 9.87356C16 9.97318 15.9626 10.0603 15.8879 10.1351L13.273 12.75L15.8879 15.3649C15.9626 15.4397 16 15.5268 16 15.6264C16 15.7261 15.9626 15.8132 15.8879 15.8879C15.8132 15.9626 15.7261 16 15.6264 16C15.5268 16 15.4397 15.9626 15.3649 15.8879L12.75 13.273Z" fill="#555351"/>
<rect x="0.75" y="0.75" width="24.5" height="24.5" rx="12.25" stroke="#8D8C8B" stroke-width="0.5"/>
</svg>
