<svg width="24" height="24" viewBox="0 0 24 24" fill="none" xmlns="http://www.w3.org/2000/svg">
<rect x="0.25" y="0.25" width="23.5" height="23.5" rx="11.75" fill="#E0EEFE"/>
<path d="M11.75 12.273L9.13506 14.8879C9.06034 14.9626 8.97318 15 8.87356 15C8.77395 15 8.68678 14.9626 8.61207 14.8879C8.53736 14.8132 8.5 14.7261 8.5 14.6264C8.5 14.5268 8.53736 14.4397 8.61207 14.3649L11.227 11.75L8.61207 9.13506C8.53736 9.06034 8.5 8.97318 8.5 8.87356C8.5 8.77395 8.53736 8.68678 8.61207 8.61207C8.68678 8.53736 8.77395 8.5 8.87356 8.5C8.97318 8.5 9.06034 8.53736 9.13506 8.61207L11.75 11.227L14.3649 8.61207C14.4397 8.53736 14.5268 8.5 14.6264 8.5C14.7261 8.5 14.8132 8.53736 14.8879 8.61207C14.9626 8.68678 15 8.77395 15 8.87356C15 8.97318 14.9626 9.06034 14.8879 9.13506L12.273 11.75L14.8879 14.3649C14.9626 14.4397 15 14.5268 15 14.6264C15 14.7261 14.9626 14.8132 14.8879 14.8879C14.8132 14.9626 14.7261 15 14.6264 15C14.5268 15 14.4397 14.9626 14.3649 14.8879L11.75 12.273Z" fill="#555351"/>
<rect x="0.25" y="0.25" width="23.5" height="23.5" rx="11.75" stroke="#8D8C8B" stroke-width="0.5"/>
</svg>
